<?xml version="1.0" encoding="utf-8"?>
<!-- Generator: Adobe Illustrator 26.0.0, SVG Export Plug-In . SVG Version: 6.00 Build 0)  -->
<svg version="1.1" id="Capa_1" xmlns="http://www.w3.org/2000/svg" xmlns:xlink="http://www.w3.org/1999/xlink" x="0px" y="0px"
	 viewBox="0 0 1035 739" style="enable-background:new 0 0 1035 739;" xml:space="preserve">
<style type="text/css">
	.st0{filter:url(#a);}
	.st1{fill-rule:evenodd;clip-rule:evenodd;}
	.st2{fill-rule:evenodd;clip-rule:evenodd;fill:#FFFFFF;}
	.st3{filter:url(#c);}
	.st4{fill-rule:evenodd;clip-rule:evenodd;fill:#00252E;}
	.st5{fill-rule:evenodd;clip-rule:evenodd;fill:#E1E8EE;}
	.st6{fill-rule:evenodd;clip-rule:evenodd;fill:#D8D8D8;}
	.st7{fill-rule:evenodd;clip-rule:evenodd;fill:url(#SVGID_1_);}
	.st8{fill-rule:evenodd;clip-rule:evenodd;fill:#A7B9C8;}
	.st9{fill-rule:evenodd;clip-rule:evenodd;fill:url(#SVGID_00000034792453101570501560000003610094780162423738_);}
	.st10{fill-rule:evenodd;clip-rule:evenodd;fill:url(#SVGID_00000018203979356634405850000015915392130462378933_);}
	.st11{filter:url(#h);}
	.st12{filter:url(#j);}
	.st13{fill-rule:evenodd;clip-rule:evenodd;fill:url(#SVGID_00000049223110118643038860000011664877166108166581_);}
	.st14{fill-rule:evenodd;clip-rule:evenodd;fill:url(#SVGID_00000103239118231817189860000003245374194756910986_);}
	.st15{fill-rule:evenodd;clip-rule:evenodd;fill:url(#SVGID_00000044154588846251236040000005851257324505021599_);}
	.st16{fill-rule:evenodd;clip-rule:evenodd;fill:url(#SVGID_00000041282902561800172780000001308628633270724511_);}
	.st17{fill-rule:evenodd;clip-rule:evenodd;fill:url(#SVGID_00000075125574265863717340000014043547427260000931_);}
	.st18{fill-rule:evenodd;clip-rule:evenodd;fill:url(#SVGID_00000156550359462388200760000003312642843913209248_);}
	.st19{fill-rule:evenodd;clip-rule:evenodd;fill:url(#SVGID_00000148634172884680817110000012686345530063539894_);}
	.st20{fill-rule:evenodd;clip-rule:evenodd;fill:url(#SVGID_00000176035538725377370730000000302682613444973965_);}
</style>
<filter  filterUnits="objectBoundingBox" height="149.4%" id="j" width="108.4%" x="-4.2%" y="-24.7%">
	<feOffset  in="SourceAlpha" result="shadowOffsetOuter1"></feOffset>
	<feGaussianBlur  in="shadowOffsetOuter1" result="shadowBlurOuter1" stdDeviation="4.5"></feGaussianBlur>
	<feColorMatrix  in="shadowBlurOuter1" values="0 0 0 0 0 0 0 0 0 0.145098039 0 0 0 0 0.180392157 0 0 0 0.181838768 0">
		</feColorMatrix>
</filter>
<filter  filterUnits="objectBoundingBox" height="105.3%" id="h" width="108.4%" x="-4.2%" y="-2.6%">
	<feOffset  in="SourceAlpha" result="shadowOffsetOuter1"></feOffset>
	<feGaussianBlur  in="shadowOffsetOuter1" result="shadowBlurOuter1" stdDeviation="4.5"></feGaussianBlur>
	<feColorMatrix  in="shadowBlurOuter1" values="0 0 0 0 0 0 0 0 0 0.145098039 0 0 0 0 0.180392157 0 0 0 0.181838768 0">
		</feColorMatrix>
</filter>
<filter  filterUnits="objectBoundingBox" height="146.9%" id="c" width="103.1%" x="-1.6%" y="-23.4%">
	<feOffset  in="SourceAlpha" result="shadowOffsetOuter1"></feOffset>
	<feGaussianBlur  in="shadowOffsetOuter1" result="shadowBlurOuter1" stdDeviation="5"></feGaussianBlur>
	<feColorMatrix  in="shadowBlurOuter1" values="0 0 0 0 0 0 0 0 0 0.145098039 0 0 0 0 0.180392157 0 0 0 0.181838768 0">
		</feColorMatrix>
</filter>
<filter  filterUnits="objectBoundingBox" height="105%" id="a" width="103.1%" x="-1.6%" y="-2.5%">
	<feOffset  in="SourceAlpha" result="shadowOffsetOuter1"></feOffset>
	<feGaussianBlur  in="shadowOffsetOuter1" result="shadowBlurOuter1" stdDeviation="5"></feGaussianBlur>
	<feColorMatrix  in="shadowBlurOuter1" values="0 0 0 0 0 0 0 0 0 0.145098039 0 0 0 0 0.180392157 0 0 0 0.181838768 0">
		</feColorMatrix>
</filter>
<g>
	<g transform="translate(10 10)">
		<g class="st0">
			<path id="b_00000040533421771327445890000002319583582792355003_" class="st1" d="M20,0h920c11,0,20,9,20,20v560c0,11-9,20-20,20
				H20c-11,0-20-9-20-20V20C0,9,9,0,20,0z"/>
		</g>
		<g>
			<path id="b_00000010274179263056165670000009415618455715891601_" class="st2" d="M20,0h920c11,0,20,9,20,20v560c0,11-9,20-20,20
				H20c-11,0-20-9-20-20V20C0,9,9,0,20,0z"/>
		</g>
		<g class="st3">
			<path id="d_00000003814877577273099660000006286755099551898034_" class="st1" d="M20,0h920c11,0,20,9,20,20v44H0V20
				C0,9,9,0,20,0z"/>
		</g>
		<g>
			<path id="d_00000049924497688018984080000013643508480776376965_" class="st4" d="M20,0h920c11,0,20,9,20,20v44H0V20
				C0,9,9,0,20,0z"/>
		</g>
		<path class="st5" d="M77,20h190c2.8,0,5,2.2,5,5v14c0,2.8-2.2,5-5,5H77c-2.8,0-5-2.2-5-5V25C72,22.2,74.2,20,77,20z"/>
		<g transform="translate(864 22)">
			<path class="st6" d="M2,0h28c1.1,0,2,0.9,2,2l0,0c0,1.1-0.9,2-2,2H2C0.9,4,0,3.1,0,2l0,0C0,0.9,0.9,0,2,0z"/>
			<path class="st6" d="M2,8h28c1.1,0,2,0.9,2,2l0,0c0,1.1-0.9,2-2,2H2c-1.1,0-2-0.9-2-2l0,0C0,8.9,0.9,8,2,8z"/>
			<path class="st6" d="M2,16h28c1.1,0,2,0.9,2,2l0,0c0,1.1-0.9,2-2,2H2c-1.1,0-2-0.9-2-2l0,0C0,16.9,0.9,16,2,16z"/>
		</g>
		<g transform="translate(72 138)">
			
				<linearGradient id="SVGID_1_" gradientUnits="userSpaceOnUse" x1="38.9106" y1="831.7172" x2="39.5225" y2="830.2995" gradientTransform="matrix(96 0 0 -96 -3718 79822)">
				<stop  offset="0" style="stop-color:#FAD961"/>
				<stop  offset="1" style="stop-color:#FF52C1"/>
			</linearGradient>
			<circle class="st7" cx="48" cy="48" r="48"/>
			<g transform="translate(152 12)">
				<path class="st5" d="M3,0h109c1.7,0,3,1.3,3,3v10c0,1.7-1.3,3-3,3H3c-1.7,0-3-1.3-3-3V3C0,1.3,1.3,0,3,0z"/>
				<path class="st5" d="M3,32h394c1.7,0,3,1.3,3,3v2c0,1.7-1.3,3-3,3H3c-1.7,0-3-1.3-3-3v-2C0,33.3,1.3,32,3,32z"/>
				<path class="st5" d="M3,48h360.7c1.7,0,3,1.3,3,3v2c0,1.7-1.3,3-3,3H3c-1.7,0-3-1.3-3-3v-2C0,49.3,1.3,48,3,48z"/>
				<path class="st5" d="M3,64h327.3c1.7,0,3,1.3,3,3v2c0,1.7-1.3,3-3,3H3c-1.7,0-3-1.3-3-3v-2C0,65.3,1.3,64,3,64z"/>
			</g>
			<g transform="translate(600 36)">
				<circle class="st8" cx="12" cy="12" r="12"/>
				<circle class="st8" cx="76" cy="12" r="12"/>
				<circle class="st8" cx="44" cy="12" r="12"/>
				<circle class="st8" cx="108" cy="12" r="12"/>
				<circle class="st8" cx="140" cy="12" r="12"/>
			</g>
		</g>
		<g transform="translate(72 274)">
			
				<linearGradient id="SVGID_00000050650048553677423800000017806554349368358275_" gradientUnits="userSpaceOnUse" x1="39.1444" y1="695.3111" x2="39.1444" y2="694.3111" gradientTransform="matrix(90 0 0 -90 -3478 62578)">
				<stop  offset="0" style="stop-color:#00C7FA"/>
				<stop  offset="1" style="stop-color:#007DFA"/>
			</linearGradient>
			
				<circle style="fill-rule:evenodd;clip-rule:evenodd;fill:url(#SVGID_00000050650048553677423800000017806554349368358275_);" cx="45" cy="45" r="45"/>
			<g transform="translate(149 9)">
				<path class="st5" d="M3,0h109c1.7,0,3,1.3,3,3v10c0,1.7-1.3,3-3,3H3c-1.7,0-3-1.3-3-3V3C0,1.3,1.3,0,3,0z"/>
				<path class="st5" d="M3,32h394c1.7,0,3,1.3,3,3v2c0,1.7-1.3,3-3,3H3c-1.7,0-3-1.3-3-3v-2C0,33.3,1.3,32,3,32z"/>
				<path class="st5" d="M3,48h360.7c1.7,0,3,1.3,3,3v2c0,1.7-1.3,3-3,3H3c-1.7,0-3-1.3-3-3v-2C0,49.3,1.3,48,3,48z"/>
				<path class="st5" d="M3,64h327.3c1.7,0,3,1.3,3,3v2c0,1.7-1.3,3-3,3H3c-1.7,0-3-1.3-3-3v-2C0,65.3,1.3,64,3,64z"/>
			</g>
			<g transform="translate(597 33)">
				<circle class="st8" cx="12" cy="12" r="12"/>
				<circle class="st8" cx="76" cy="12" r="12"/>
				<circle class="st8" cx="44" cy="12" r="12"/>
			</g>
		</g>
		<g transform="translate(72 417)">
			
				<linearGradient id="SVGID_00000033370533527245319890000011908620612029121167_" gradientUnits="userSpaceOnUse" x1="38.8843" y1="552.2837" x2="39.4966" y2="551.1713" gradientTransform="matrix(90 0 0 -90 -3478 49708)">
				<stop  offset="0" style="stop-color:#FF52C1"/>
				<stop  offset="1" style="stop-color:#9952FF"/>
			</linearGradient>
			
				<circle style="fill-rule:evenodd;clip-rule:evenodd;fill:url(#SVGID_00000033370533527245319890000011908620612029121167_);" cx="45" cy="45" r="45"/>
			<g transform="translate(149 9)">
				<path class="st5" d="M3,0h109c1.7,0,3,1.3,3,3v10c0,1.7-1.3,3-3,3H3c-1.7,0-3-1.3-3-3V3C0,1.3,1.3,0,3,0z"/>
				<path class="st5" d="M3,32h394c1.7,0,3,1.3,3,3v2c0,1.7-1.3,3-3,3H3c-1.7,0-3-1.3-3-3v-2C0,33.3,1.3,32,3,32z"/>
				<path class="st5" d="M3,48h360.7c1.7,0,3,1.3,3,3v2c0,1.7-1.3,3-3,3H3c-1.7,0-3-1.3-3-3v-2C0,49.3,1.3,48,3,48z"/>
				<path class="st5" d="M3,64h327.3c1.7,0,3,1.3,3,3v2c0,1.7-1.3,3-3,3H3c-1.7,0-3-1.3-3-3v-2C0,65.3,1.3,64,3,64z"/>
			</g>
			<g transform="translate(597 33)">
				<circle class="st8" cx="12" cy="12" r="12"/>
				<circle class="st8" cx="76" cy="12" r="12"/>
				<circle class="st8" cx="44" cy="12" r="12"/>
				<circle class="st8" cx="108" cy="12" r="12"/>
			</g>
		</g>
	</g>
	<g transform="translate(706 218)">
		<g class="st11">
			<path id="i_00000134244569733455497200000007917019951254280367_" class="st1" d="M17.1,0h285.9c9.4,0,17.1,7.6,17.1,17.1v477.9
				c0,9.4-7.6,17.1-17.1,17.1H17.1C7.6,512,0,504.4,0,494.9V17.1C0,7.6,7.6,0,17.1,0z"/>
		</g>
		<g>
			<path id="i_00000168835640309981276310000014135993718505973409_" class="st2" d="M17.1,0h285.9c9.4,0,17.1,7.6,17.1,17.1v477.9
				c0,9.4-7.6,17.1-17.1,17.1H17.1C7.6,512,0,504.4,0,494.9V17.1C0,7.6,7.6,0,17.1,0z"/>
		</g>
	</g>
	<g transform="translate(706 218)">
		<g class="st12">
			<path id="k_00000039111971692379067310000014548517077821921677_" class="st1" d="M17.1,0h285.9c9.4,0,17.1,7.6,17.1,17.1v37.5H0
				V17.1C0,7.6,7.6,0,17.1,0z"/>
		</g>
		<g>
			<path id="k_00000064322624809458940450000013634617515924138417_" class="st4" d="M17.1,0h285.9c9.4,0,17.1,7.6,17.1,17.1v37.5H0
				V17.1C0,7.6,7.6,0,17.1,0z"/>
		</g>
	</g>
	<g transform="translate(738.133 236.773)">
		<path class="st5" d="M4.3,0h95.5c2.4,0,4.3,1.9,4.3,4.3v11.9c0,2.4-1.9,4.3-4.3,4.3H4.3c-2.4,0-4.3-1.9-4.3-4.3V4.3
			C0,1.9,1.9,0,4.3,0z"/>
		<g transform="translate(226.427 1.707)">
			<path class="st6" d="M1.7,0h23.9c0.9,0,1.7,0.8,1.7,1.7l0,0c0,0.9-0.8,1.7-1.7,1.7H1.7C0.8,3.4,0,2.6,0,1.7l0,0
				C0,0.8,0.8,0,1.7,0z"/>
			<path class="st6" d="M1.7,6.8h23.9c0.9,0,1.7,0.8,1.7,1.7v0c0,0.9-0.8,1.7-1.7,1.7H1.7C0.8,10.2,0,9.5,0,8.5v0
				C0,7.6,0.8,6.8,1.7,6.8z"/>
			<path class="st6" d="M1.7,13.7h23.9c0.9,0,1.7,0.8,1.7,1.7l0,0c0,0.9-0.8,1.7-1.7,1.7H1.7c-0.9,0-1.7-0.8-1.7-1.7l0,0
				C0,14.4,0.8,13.7,1.7,13.7z"/>
		</g>
	</g>
	<g transform="translate(738 326)">
		
			<linearGradient id="SVGID_00000116957017746837466470000012939359664150135202_" gradientUnits="userSpaceOnUse" x1="-619.8852" y1="648.1713" x2="-619.2733" y2="646.7537" gradientTransform="matrix(30 0 0 -30 18602 19438)">
			<stop  offset="0" style="stop-color:#FAD961"/>
			<stop  offset="1" style="stop-color:#FF52C1"/>
		</linearGradient>
		
			<circle style="fill-rule:evenodd;clip-rule:evenodd;fill:url(#SVGID_00000116957017746837466470000012939359664150135202_);" cx="15" cy="15" r="15"/>
		<g transform="translate(46 3)">
			<path class="st5" d="M0.9,0h55.7c0.5,0,0.9,0.4,0.9,0.9v3.5c0,0.5-0.4,0.9-0.9,0.9H0.9C0.4,5.3,0,4.9,0,4.4V0.9
				C0,0.4,0.4,0,0.9,0z"/>
			<path class="st5" d="M0.9,10.7h198.2c0.5,0,0.9,0.4,0.9,0.9v0.8c0,0.5-0.4,0.9-0.9,0.9H0.9c-0.5,0-0.9-0.4-0.9-0.9v-0.8
				C0,11.1,0.4,10.7,0.9,10.7z"/>
			<path class="st5" d="M0.9,16h181.5c0.5,0,0.9,0.4,0.9,0.9v0.8c0,0.5-0.4,0.9-0.9,0.9H0.9c-0.5,0-0.9-0.4-0.9-0.9v-0.8
				C0,16.4,0.4,16,0.9,16z"/>
			<path class="st5" d="M0.9,21.3h164.8c0.5,0,0.9,0.4,0.9,0.9v0.8c0,0.5-0.4,0.9-0.9,0.9H0.9C0.4,24,0,23.6,0,23.1v-0.8
				C0,21.7,0.4,21.3,0.9,21.3z"/>
		</g>
	</g>
	<g transform="translate(738 464)">
		
			<linearGradient id="SVGID_00000101074081182107246430000014097181611393611414_" gradientUnits="userSpaceOnUse" x1="-619.8852" y1="510.1714" x2="-619.2733" y2="508.7537" gradientTransform="matrix(30 0 0 -30 18602 15298)">
			<stop  offset="0" style="stop-color:#FAD961"/>
			<stop  offset="1" style="stop-color:#FF52C1"/>
		</linearGradient>
		
			<circle style="fill-rule:evenodd;clip-rule:evenodd;fill:url(#SVGID_00000101074081182107246430000014097181611393611414_);" cx="15" cy="15" r="15"/>
		<g transform="translate(46 3)">
			<path class="st5" d="M0.9,0h55.7c0.5,0,0.9,0.4,0.9,0.9v3.5c0,0.5-0.4,0.9-0.9,0.9H0.9C0.4,5.3,0,4.9,0,4.4V0.9
				C0,0.4,0.4,0,0.9,0z"/>
			<path class="st5" d="M0.9,10.7h198.2c0.5,0,0.9,0.4,0.9,0.9v0.8c0,0.5-0.4,0.9-0.9,0.9H0.9c-0.5,0-0.9-0.4-0.9-0.9v-0.8
				C0,11.1,0.4,10.7,0.9,10.7z"/>
			<path class="st5" d="M0.9,16h181.5c0.5,0,0.9,0.4,0.9,0.9v0.8c0,0.5-0.4,0.9-0.9,0.9H0.9c-0.5,0-0.9-0.4-0.9-0.9v-0.8
				C0,16.4,0.4,16,0.9,16z"/>
			<path class="st5" d="M0.9,21.3h164.8c0.5,0,0.9,0.4,0.9,0.9v0.8c0,0.5-0.4,0.9-0.9,0.9H0.9C0.4,24,0,23.6,0,23.1v-0.8
				C0,21.7,0.4,21.3,0.9,21.3z"/>
		</g>
	</g>
	<g transform="translate(738 372)">
		<g transform="translate(46 3)">
			<path class="st5" d="M0.9,0h55.7c0.5,0,0.9,0.4,0.9,0.9v3.5c0,0.5-0.4,0.9-0.9,0.9H0.9C0.4,5.3,0,4.9,0,4.4V0.9
				C0,0.4,0.4,0,0.9,0z"/>
			<path class="st5" d="M0.9,10.7h198.2c0.5,0,0.9,0.4,0.9,0.9v0.8c0,0.5-0.4,0.9-0.9,0.9H0.9c-0.5,0-0.9-0.4-0.9-0.9v-0.8
				C0,11.1,0.4,10.7,0.9,10.7z"/>
			<path class="st5" d="M0.9,16h181.5c0.5,0,0.9,0.4,0.9,0.9v0.8c0,0.5-0.4,0.9-0.9,0.9H0.9c-0.5,0-0.9-0.4-0.9-0.9v-0.8
				C0,16.4,0.4,16,0.9,16z"/>
			<path class="st5" d="M0.9,21.3h164.8c0.5,0,0.9,0.4,0.9,0.9v0.8c0,0.5-0.4,0.9-0.9,0.9H0.9C0.4,24,0,23.6,0,23.1v-0.8
				C0,21.7,0.4,21.3,0.9,21.3z"/>
		</g>
		
			<linearGradient id="SVGID_00000054955475378557686750000012907797055300208031_" gradientUnits="userSpaceOnUse" x1="-619.5667" y1="601.9333" x2="-619.5667" y2="600.9333" gradientTransform="matrix(30 0 0 -30 18602 18058)">
			<stop  offset="0" style="stop-color:#00C7FA"/>
			<stop  offset="1" style="stop-color:#007DFA"/>
		</linearGradient>
		
			<circle style="fill-rule:evenodd;clip-rule:evenodd;fill:url(#SVGID_00000054955475378557686750000012907797055300208031_);" cx="15" cy="15" r="15"/>
	</g>
	<g transform="translate(738 510)">
		<g transform="translate(46 3)">
			<path class="st5" d="M0.9,0h55.7c0.5,0,0.9,0.4,0.9,0.9v3.5c0,0.5-0.4,0.9-0.9,0.9H0.9C0.4,5.3,0,4.9,0,4.4V0.9
				C0,0.4,0.4,0,0.9,0z"/>
			<path class="st5" d="M0.9,10.7h198.2c0.5,0,0.9,0.4,0.9,0.9v0.8c0,0.5-0.4,0.9-0.9,0.9H0.9c-0.5,0-0.9-0.4-0.9-0.9v-0.8
				C0,11.1,0.4,10.7,0.9,10.7z"/>
			<path class="st5" d="M0.9,16h181.5c0.5,0,0.9,0.4,0.9,0.9v0.8c0,0.5-0.4,0.9-0.9,0.9H0.9c-0.5,0-0.9-0.4-0.9-0.9v-0.8
				C0,16.4,0.4,16,0.9,16z"/>
			<path class="st5" d="M0.9,21.3h164.8c0.5,0,0.9,0.4,0.9,0.9v0.8c0,0.5-0.4,0.9-0.9,0.9H0.9C0.4,24,0,23.6,0,23.1v-0.8
				C0,21.7,0.4,21.3,0.9,21.3z"/>
		</g>
		
			<linearGradient id="SVGID_00000116213232943086299600000016711833379914181026_" gradientUnits="userSpaceOnUse" x1="-619.5667" y1="463.9333" x2="-619.5667" y2="462.9333" gradientTransform="matrix(30 0 0 -30 18602 13918)">
			<stop  offset="0" style="stop-color:#00C7FA"/>
			<stop  offset="1" style="stop-color:#007DFA"/>
		</linearGradient>
		
			<circle style="fill-rule:evenodd;clip-rule:evenodd;fill:url(#SVGID_00000116213232943086299600000016711833379914181026_);" cx="15" cy="15" r="15"/>
	</g>
	<g transform="translate(738 418)">
		<g transform="translate(46 3)">
			<path class="st5" d="M0.9,0h55.7c0.5,0,0.9,0.4,0.9,0.9v3.5c0,0.5-0.4,0.9-0.9,0.9H0.9C0.4,5.3,0,4.9,0,4.4V0.9
				C0,0.4,0.4,0,0.9,0z"/>
			<path class="st5" d="M0.9,10.7h198.2c0.5,0,0.9,0.4,0.9,0.9v0.8c0,0.5-0.4,0.9-0.9,0.9H0.9c-0.5,0-0.9-0.4-0.9-0.9v-0.8
				C0,11.1,0.4,10.7,0.9,10.7z"/>
			<path class="st5" d="M0.9,16h181.5c0.5,0,0.9,0.4,0.9,0.9v0.8c0,0.5-0.4,0.9-0.9,0.9H0.9c-0.5,0-0.9-0.4-0.9-0.9v-0.8
				C0,16.4,0.4,16,0.9,16z"/>
			<path class="st5" d="M0.9,21.3h164.8c0.5,0,0.9,0.4,0.9,0.9v0.8c0,0.5-0.4,0.9-0.9,0.9H0.9C0.4,24,0,23.6,0,23.1v-0.8
				C0,21.7,0.4,21.3,0.9,21.3z"/>
		</g>
		
			<linearGradient id="SVGID_00000059284603480486838970000008980416424454135208_" gradientUnits="userSpaceOnUse" x1="-619.8268" y1="555.9059" x2="-619.2145" y2="554.7935" gradientTransform="matrix(30 0 0 -30 18602 16678)">
			<stop  offset="0" style="stop-color:#FF52C1"/>
			<stop  offset="1" style="stop-color:#9952FF"/>
		</linearGradient>
		
			<circle style="fill-rule:evenodd;clip-rule:evenodd;fill:url(#SVGID_00000059284603480486838970000008980416424454135208_);" cx="15" cy="15" r="15"/>
	</g>
	<g transform="translate(738 556)">
		<g transform="translate(46 3)">
			<path class="st5" d="M0.9,0h55.7c0.5,0,0.9,0.4,0.9,0.9v3.5c0,0.5-0.4,0.9-0.9,0.9H0.9C0.4,5.3,0,4.9,0,4.4V0.9
				C0,0.4,0.4,0,0.9,0z"/>
			<path class="st5" d="M0.9,10.7h198.2c0.5,0,0.9,0.4,0.9,0.9v0.8c0,0.5-0.4,0.9-0.9,0.9H0.9c-0.5,0-0.9-0.4-0.9-0.9v-0.8
				C0,11.1,0.4,10.7,0.9,10.7z"/>
			<path class="st5" d="M0.9,16h181.5c0.5,0,0.9,0.4,0.9,0.9v0.8c0,0.5-0.4,0.9-0.9,0.9H0.9c-0.5,0-0.9-0.4-0.9-0.9v-0.8
				C0,16.4,0.4,16,0.9,16z"/>
			<path class="st5" d="M0.9,21.3h164.8c0.5,0,0.9,0.4,0.9,0.9v0.8c0,0.5-0.4,0.9-0.9,0.9H0.9C0.4,24,0,23.6,0,23.1v-0.8
				C0,21.7,0.4,21.3,0.9,21.3z"/>
		</g>
		
			<linearGradient id="SVGID_00000023276072923689984770000002155694354536648590_" gradientUnits="userSpaceOnUse" x1="-619.8268" y1="417.9059" x2="-619.2145" y2="416.7935" gradientTransform="matrix(30 0 0 -30 18602 12538)">
			<stop  offset="0" style="stop-color:#FF52C1"/>
			<stop  offset="1" style="stop-color:#9952FF"/>
		</linearGradient>
		
			<circle style="fill-rule:evenodd;clip-rule:evenodd;fill:url(#SVGID_00000023276072923689984770000002155694354536648590_);" cx="15" cy="15" r="15"/>
	</g>
	<g transform="translate(738 602)">
		
			<linearGradient id="SVGID_00000008867558292269599770000017609148594436695742_" gradientUnits="userSpaceOnUse" x1="-619.8852" y1="372.1714" x2="-619.2733" y2="370.7537" gradientTransform="matrix(30 0 0 -30 18602 11158)">
			<stop  offset="0" style="stop-color:#FAD961"/>
			<stop  offset="1" style="stop-color:#FF52C1"/>
		</linearGradient>
		
			<circle style="fill-rule:evenodd;clip-rule:evenodd;fill:url(#SVGID_00000008867558292269599770000017609148594436695742_);" cx="15" cy="15" r="15"/>
		<g transform="translate(46 3)">
			<path class="st5" d="M0.9,0h55.7c0.5,0,0.9,0.4,0.9,0.9v3.5c0,0.5-0.4,0.9-0.9,0.9H0.9C0.4,5.3,0,4.9,0,4.4V0.9
				C0,0.4,0.4,0,0.9,0z"/>
			<path class="st5" d="M0.9,10.7h198.2c0.5,0,0.9,0.4,0.9,0.9v0.8c0,0.5-0.4,0.9-0.9,0.9H0.9c-0.5,0-0.9-0.4-0.9-0.9v-0.8
				C0,11.1,0.4,10.7,0.9,10.7z"/>
			<path class="st5" d="M0.9,16h181.5c0.5,0,0.9,0.4,0.9,0.9v0.8c0,0.5-0.4,0.9-0.9,0.9H0.9c-0.5,0-0.9-0.4-0.9-0.9v-0.8
				C0,16.4,0.4,16,0.9,16z"/>
			<path class="st5" d="M0.9,21.3h164.8c0.5,0,0.9,0.4,0.9,0.9v0.8c0,0.5-0.4,0.9-0.9,0.9H0.9C0.4,24,0,23.6,0,23.1v-0.8
				C0,21.7,0.4,21.3,0.9,21.3z"/>
		</g>
	</g>
	<g transform="translate(738 648)">
		<g transform="translate(46 3)">
			<path class="st5" d="M0.9,0h55.7c0.5,0,0.9,0.4,0.9,0.9v3.5c0,0.5-0.4,0.9-0.9,0.9H0.9C0.4,5.3,0,4.9,0,4.4V0.9
				C0,0.4,0.4,0,0.9,0z"/>
			<path class="st5" d="M0.9,10.7h198.2c0.5,0,0.9,0.4,0.9,0.9v0.8c0,0.5-0.4,0.9-0.9,0.9H0.9c-0.5,0-0.9-0.4-0.9-0.9v-0.8
				C0,11.1,0.4,10.7,0.9,10.7z"/>
			<path class="st5" d="M0.9,16h181.5c0.5,0,0.9,0.4,0.9,0.9v0.8c0,0.5-0.4,0.9-0.9,0.9H0.9c-0.5,0-0.9-0.4-0.9-0.9v-0.8
				C0,16.4,0.4,16,0.9,16z"/>
			<path class="st5" d="M0.9,21.3h164.8c0.5,0,0.9,0.4,0.9,0.9v0.8c0,0.5-0.4,0.9-0.9,0.9H0.9C0.4,24,0,23.6,0,23.1v-0.8
				C0,21.7,0.4,21.3,0.9,21.3z"/>
		</g>
		
			<linearGradient id="SVGID_00000003803538228022323400000006930214984870137739_" gradientUnits="userSpaceOnUse" x1="-619.5667" y1="325.9333" x2="-619.5667" y2="324.9333" gradientTransform="matrix(30 0 0 -30 18602 9778)">
			<stop  offset="0" style="stop-color:#00C7FA"/>
			<stop  offset="1" style="stop-color:#007DFA"/>
		</linearGradient>
		
			<circle style="fill-rule:evenodd;clip-rule:evenodd;fill:url(#SVGID_00000003803538228022323400000006930214984870137739_);" cx="15" cy="15" r="15"/>
	</g>
</g>
</svg>
